<mxfile host="app.diagrams.net" agent="Mozilla/5.0 (Windows NT 10.0; Win64; x64) AppleWebKit/537.36 (KHTML, like Gecko) Chrome/138.0.0.0 Safari/537.36 OPR/122.0.0.0" version="28.2.5">
  <diagram name="Page-1" id="935gk-mgyDyj7o7sxAbQ">
    <mxGraphModel dx="1153" dy="633" grid="1" gridSize="10" guides="1" tooltips="1" connect="1" arrows="1" fold="1" page="1" pageScale="1" pageWidth="2000" pageHeight="2000" math="0" shadow="0">
      <root>
        <mxCell id="0" />
        <mxCell id="1" parent="0" />
        <mxCell id="0PlHV3OxmcAFYTyNckas-15" value="" style="endArrow=classic;html=1;rounded=0;fontSize=13;" edge="1" parent="1">
          <mxGeometry width="50" height="50" relative="1" as="geometry">
            <mxPoint x="180" y="280" as="sourcePoint" />
            <mxPoint x="500" y="280" as="targetPoint" />
          </mxGeometry>
        </mxCell>
        <mxCell id="0PlHV3OxmcAFYTyNckas-16" value="After customer confirming the orders" style="edgeLabel;html=1;align=center;verticalAlign=middle;resizable=0;points=[];fontSize=13;" vertex="1" connectable="0" parent="0PlHV3OxmcAFYTyNckas-15">
          <mxGeometry x="-0.1576" y="5" relative="1" as="geometry">
            <mxPoint x="26" y="-5" as="offset" />
          </mxGeometry>
        </mxCell>
        <mxCell id="0PlHV3OxmcAFYTyNckas-18" value="" style="endArrow=classic;html=1;rounded=0;dashed=1;fontSize=13;" edge="1" parent="1">
          <mxGeometry width="50" height="50" relative="1" as="geometry">
            <mxPoint x="500" y="320" as="sourcePoint" />
            <mxPoint x="180" y="320" as="targetPoint" />
          </mxGeometry>
        </mxCell>
        <mxCell id="0PlHV3OxmcAFYTyNckas-19" value="Show &quot;Purchase Order&quot;" style="text;html=1;align=center;verticalAlign=middle;resizable=0;points=[];autosize=1;strokeColor=none;fillColor=none;fontSize=13;" vertex="1" parent="1">
          <mxGeometry x="260" y="298" width="160" height="30" as="geometry" />
        </mxCell>
        <mxCell id="0PlHV3OxmcAFYTyNckas-7" value="" style="endArrow=none;html=1;rounded=0;entryX=0.5;entryY=1;entryDx=0;entryDy=0;movable=1;resizable=1;rotatable=1;deletable=1;editable=1;locked=0;connectable=1;exitX=0.5;exitY=0;exitDx=0;exitDy=0;fontSize=13;" edge="1" parent="1" source="0PlHV3OxmcAFYTyNckas-80" target="0PlHV3OxmcAFYTyNckas-1">
          <mxGeometry width="50" height="50" relative="1" as="geometry">
            <mxPoint x="180" y="1480" as="sourcePoint" />
            <mxPoint x="500" y="390" as="targetPoint" />
          </mxGeometry>
        </mxCell>
        <mxCell id="0PlHV3OxmcAFYTyNckas-1" value="User" style="rounded=1;whiteSpace=wrap;html=1;movable=1;resizable=1;rotatable=1;deletable=1;editable=1;locked=0;connectable=1;fontSize=13;" vertex="1" parent="1">
          <mxGeometry x="120" y="140" width="120" height="60" as="geometry" />
        </mxCell>
        <mxCell id="0PlHV3OxmcAFYTyNckas-2" value="Frontend" style="rounded=1;whiteSpace=wrap;html=1;movable=1;resizable=1;rotatable=1;deletable=1;editable=1;locked=0;connectable=1;fontSize=13;" vertex="1" parent="1">
          <mxGeometry x="440" y="140" width="120" height="60" as="geometry" />
        </mxCell>
        <mxCell id="0PlHV3OxmcAFYTyNckas-3" value="Backend" style="rounded=1;whiteSpace=wrap;html=1;movable=1;resizable=1;rotatable=1;deletable=1;editable=1;locked=0;connectable=1;fontSize=13;" vertex="1" parent="1">
          <mxGeometry x="760" y="140" width="120" height="60" as="geometry" />
        </mxCell>
        <mxCell id="0PlHV3OxmcAFYTyNckas-4" value="PaymentService" style="rounded=1;whiteSpace=wrap;html=1;movable=1;resizable=1;rotatable=1;deletable=1;editable=1;locked=0;connectable=1;fontSize=13;" vertex="1" parent="1">
          <mxGeometry x="1120" y="140" width="120" height="60" as="geometry" />
        </mxCell>
        <mxCell id="0PlHV3OxmcAFYTyNckas-6" value="Database" style="rounded=1;whiteSpace=wrap;html=1;movable=1;resizable=1;rotatable=1;deletable=1;editable=1;locked=0;connectable=1;fontSize=13;" vertex="1" parent="1">
          <mxGeometry x="1320" y="140" width="120" height="60" as="geometry" />
        </mxCell>
        <mxCell id="0PlHV3OxmcAFYTyNckas-8" value="" style="endArrow=none;html=1;rounded=0;entryX=0.5;entryY=1;entryDx=0;entryDy=0;movable=1;resizable=1;rotatable=1;deletable=1;editable=1;locked=0;connectable=1;exitX=0.5;exitY=0;exitDx=0;exitDy=0;fontSize=13;" edge="1" parent="1" source="0PlHV3OxmcAFYTyNckas-81">
          <mxGeometry width="50" height="50" relative="1" as="geometry">
            <mxPoint x="499" y="1480" as="sourcePoint" />
            <mxPoint x="499.17" y="200" as="targetPoint" />
          </mxGeometry>
        </mxCell>
        <mxCell id="0PlHV3OxmcAFYTyNckas-9" value="" style="endArrow=none;html=1;rounded=0;entryX=0.5;entryY=1;entryDx=0;entryDy=0;movable=1;resizable=1;rotatable=1;deletable=1;editable=1;locked=0;connectable=1;exitX=0.5;exitY=0;exitDx=0;exitDy=0;fontSize=13;" edge="1" parent="1" source="0PlHV3OxmcAFYTyNckas-82">
          <mxGeometry width="50" height="50" relative="1" as="geometry">
            <mxPoint x="820" y="1480" as="sourcePoint" />
            <mxPoint x="820" y="200" as="targetPoint" />
          </mxGeometry>
        </mxCell>
        <mxCell id="0PlHV3OxmcAFYTyNckas-10" value="" style="endArrow=none;html=1;rounded=0;entryX=0.5;entryY=1;entryDx=0;entryDy=0;movable=1;resizable=1;rotatable=1;deletable=1;editable=1;locked=0;connectable=1;exitX=0.5;exitY=0;exitDx=0;exitDy=0;fontSize=13;" edge="1" parent="1" source="0PlHV3OxmcAFYTyNckas-83">
          <mxGeometry width="50" height="50" relative="1" as="geometry">
            <mxPoint x="1180" y="1480" as="sourcePoint" />
            <mxPoint x="1179.17" y="200" as="targetPoint" />
          </mxGeometry>
        </mxCell>
        <mxCell id="0PlHV3OxmcAFYTyNckas-12" value="" style="endArrow=none;html=1;rounded=0;entryX=0.5;entryY=1;entryDx=0;entryDy=0;movable=1;resizable=1;rotatable=1;deletable=1;editable=1;locked=0;connectable=1;exitX=0.5;exitY=0;exitDx=0;exitDy=0;fontSize=13;" edge="1" parent="1" source="0PlHV3OxmcAFYTyNckas-85">
          <mxGeometry width="50" height="50" relative="1" as="geometry">
            <mxPoint x="1379" y="1480" as="sourcePoint" />
            <mxPoint x="1379.17" y="200" as="targetPoint" />
          </mxGeometry>
        </mxCell>
        <mxCell id="0PlHV3OxmcAFYTyNckas-20" value="" style="endArrow=classic;html=1;rounded=0;movable=1;resizable=1;rotatable=1;deletable=1;editable=1;locked=0;connectable=1;fontSize=13;" edge="1" parent="1">
          <mxGeometry width="50" height="50" relative="1" as="geometry">
            <mxPoint x="180" y="360" as="sourcePoint" />
            <mxPoint x="500" y="360" as="targetPoint" />
          </mxGeometry>
        </mxCell>
        <mxCell id="0PlHV3OxmcAFYTyNckas-21" value="Click &quot;Pay (Online)&quot;" style="edgeLabel;html=1;align=center;verticalAlign=middle;resizable=0;points=[];fontSize=13;" vertex="1" connectable="0" parent="0PlHV3OxmcAFYTyNckas-20">
          <mxGeometry x="-0.1576" y="5" relative="1" as="geometry">
            <mxPoint x="26" y="-5" as="offset" />
          </mxGeometry>
        </mxCell>
        <mxCell id="0PlHV3OxmcAFYTyNckas-14" value="Online Payment Flow" style="rounded=0;whiteSpace=wrap;html=1;fillColor=#d5e8d4;strokeColor=#82b366;fontSize=13;" vertex="1" parent="1">
          <mxGeometry x="160" y="210" width="360" height="40" as="geometry" />
        </mxCell>
        <mxCell id="0PlHV3OxmcAFYTyNckas-23" value="" style="endArrow=classic;html=1;rounded=0;movable=1;resizable=1;rotatable=1;deletable=1;editable=1;locked=0;connectable=1;fontSize=13;" edge="1" parent="1">
          <mxGeometry width="50" height="50" relative="1" as="geometry">
            <mxPoint x="500" y="400" as="sourcePoint" />
            <mxPoint x="820" y="400" as="targetPoint" />
          </mxGeometry>
        </mxCell>
        <mxCell id="0PlHV3OxmcAFYTyNckas-24" value="Request payment link" style="edgeLabel;html=1;align=center;verticalAlign=middle;resizable=0;points=[];fontSize=13;" vertex="1" connectable="0" parent="0PlHV3OxmcAFYTyNckas-23">
          <mxGeometry x="-0.1576" y="5" relative="1" as="geometry">
            <mxPoint x="26" y="-5" as="offset" />
          </mxGeometry>
        </mxCell>
        <mxCell id="0PlHV3OxmcAFYTyNckas-29" value="" style="group;fontSize=13;" vertex="1" connectable="0" parent="1">
          <mxGeometry x="770" y="420" width="135" height="42" as="geometry" />
        </mxCell>
        <mxCell id="0PlHV3OxmcAFYTyNckas-26" value="" style="endArrow=classic;html=1;rounded=0;edgeStyle=orthogonalEdgeStyle;curved=1;fontSize=13;" edge="1" parent="0PlHV3OxmcAFYTyNckas-29">
          <mxGeometry width="50" height="50" relative="1" as="geometry">
            <mxPoint x="50" y="22" as="sourcePoint" />
            <mxPoint x="50" y="42" as="targetPoint" />
            <Array as="points">
              <mxPoint x="90" y="22" />
              <mxPoint x="90" y="42" />
            </Array>
          </mxGeometry>
        </mxCell>
        <mxCell id="0PlHV3OxmcAFYTyNckas-28" value="Generate auth_code" style="text;html=1;align=center;verticalAlign=middle;resizable=0;points=[];autosize=1;strokeColor=none;fillColor=none;fontSize=13;" vertex="1" parent="0PlHV3OxmcAFYTyNckas-29">
          <mxGeometry x="-5" width="140" height="30" as="geometry" />
        </mxCell>
        <mxCell id="0PlHV3OxmcAFYTyNckas-31" value="" style="endArrow=classic;html=1;rounded=0;movable=1;resizable=1;rotatable=1;deletable=1;editable=1;locked=0;connectable=1;fontSize=13;" edge="1" parent="1">
          <mxGeometry width="50" height="50" relative="1" as="geometry">
            <mxPoint x="820" y="520" as="sourcePoint" />
            <mxPoint x="1180" y="520" as="targetPoint" />
          </mxGeometry>
        </mxCell>
        <mxCell id="0PlHV3OxmcAFYTyNckas-32" value="Create payment URL (with auth_code)" style="edgeLabel;html=1;align=center;verticalAlign=middle;resizable=0;points=[];fontSize=13;" vertex="1" connectable="0" parent="0PlHV3OxmcAFYTyNckas-31">
          <mxGeometry x="-0.1576" y="5" relative="1" as="geometry">
            <mxPoint x="26" y="-5" as="offset" />
          </mxGeometry>
        </mxCell>
        <mxCell id="0PlHV3OxmcAFYTyNckas-33" value="" style="endArrow=classic;html=1;rounded=0;dashed=1;fontSize=13;" edge="1" parent="1">
          <mxGeometry width="50" height="50" relative="1" as="geometry">
            <mxPoint x="1180" y="560" as="sourcePoint" />
            <mxPoint x="820" y="560" as="targetPoint" />
          </mxGeometry>
        </mxCell>
        <mxCell id="0PlHV3OxmcAFYTyNckas-34" value="Return payment URL" style="edgeLabel;html=1;align=center;verticalAlign=middle;resizable=0;points=[];fontSize=13;" vertex="1" connectable="0" parent="0PlHV3OxmcAFYTyNckas-33">
          <mxGeometry x="-0.0313" y="-4" relative="1" as="geometry">
            <mxPoint x="-6" y="-6" as="offset" />
          </mxGeometry>
        </mxCell>
        <mxCell id="0PlHV3OxmcAFYTyNckas-36" value="" style="endArrow=classic;html=1;rounded=0;dashed=1;fontSize=13;" edge="1" parent="1">
          <mxGeometry width="50" height="50" relative="1" as="geometry">
            <mxPoint x="820" y="600" as="sourcePoint" />
            <mxPoint x="500" y="600" as="targetPoint" />
          </mxGeometry>
        </mxCell>
        <mxCell id="0PlHV3OxmcAFYTyNckas-37" value="Return payment URL" style="edgeLabel;html=1;align=center;verticalAlign=middle;resizable=0;points=[];fontSize=13;" vertex="1" connectable="0" parent="0PlHV3OxmcAFYTyNckas-36">
          <mxGeometry x="-0.0313" y="-4" relative="1" as="geometry">
            <mxPoint x="-6" y="-6" as="offset" />
          </mxGeometry>
        </mxCell>
        <mxCell id="0PlHV3OxmcAFYTyNckas-38" value="" style="endArrow=classic;html=1;rounded=0;dashed=1;fontSize=13;" edge="1" parent="1">
          <mxGeometry width="50" height="50" relative="1" as="geometry">
            <mxPoint x="500" y="640" as="sourcePoint" />
            <mxPoint x="180" y="640" as="targetPoint" />
          </mxGeometry>
        </mxCell>
        <mxCell id="0PlHV3OxmcAFYTyNckas-39" value="Redirect to payment page" style="edgeLabel;html=1;align=center;verticalAlign=middle;resizable=0;points=[];fontSize=13;" vertex="1" connectable="0" parent="0PlHV3OxmcAFYTyNckas-38">
          <mxGeometry x="-0.0313" y="-4" relative="1" as="geometry">
            <mxPoint x="-6" y="-6" as="offset" />
          </mxGeometry>
        </mxCell>
        <mxCell id="0PlHV3OxmcAFYTyNckas-40" value="" style="endArrow=classic;html=1;rounded=0;movable=1;resizable=1;rotatable=1;deletable=1;editable=1;locked=0;connectable=1;fontSize=13;" edge="1" parent="1">
          <mxGeometry width="50" height="50" relative="1" as="geometry">
            <mxPoint x="180" y="680" as="sourcePoint" />
            <mxPoint x="1180" y="680" as="targetPoint" />
          </mxGeometry>
        </mxCell>
        <mxCell id="0PlHV3OxmcAFYTyNckas-41" value="Complete payment" style="edgeLabel;html=1;align=center;verticalAlign=middle;resizable=0;points=[];fontSize=13;" vertex="1" connectable="0" parent="0PlHV3OxmcAFYTyNckas-40">
          <mxGeometry x="-0.1576" y="5" relative="1" as="geometry">
            <mxPoint x="108" y="-5" as="offset" />
          </mxGeometry>
        </mxCell>
        <mxCell id="0PlHV3OxmcAFYTyNckas-43" value="" style="endArrow=classic;html=1;rounded=0;movable=1;resizable=1;rotatable=1;deletable=1;editable=1;locked=0;connectable=1;fontSize=13;" edge="1" parent="1">
          <mxGeometry width="50" height="50" relative="1" as="geometry">
            <mxPoint x="1180" y="720" as="sourcePoint" />
            <mxPoint x="820" y="720" as="targetPoint" />
          </mxGeometry>
        </mxCell>
        <mxCell id="0PlHV3OxmcAFYTyNckas-44" value="Notify payment success (webhook with auth_code)" style="edgeLabel;html=1;align=center;verticalAlign=middle;resizable=0;points=[];fontSize=13;" vertex="1" connectable="0" parent="0PlHV3OxmcAFYTyNckas-43">
          <mxGeometry x="-0.1576" y="5" relative="1" as="geometry">
            <mxPoint x="-18" y="-15" as="offset" />
          </mxGeometry>
        </mxCell>
        <mxCell id="0PlHV3OxmcAFYTyNckas-45" value="" style="group;fontSize=13;" vertex="1" connectable="0" parent="1">
          <mxGeometry x="770" y="740" width="150" height="42" as="geometry" />
        </mxCell>
        <mxCell id="0PlHV3OxmcAFYTyNckas-46" value="" style="endArrow=classic;html=1;rounded=0;edgeStyle=orthogonalEdgeStyle;curved=1;fontSize=13;" edge="1" parent="0PlHV3OxmcAFYTyNckas-45">
          <mxGeometry width="50" height="50" relative="1" as="geometry">
            <mxPoint x="50" y="22" as="sourcePoint" />
            <mxPoint x="50" y="42" as="targetPoint" />
            <Array as="points">
              <mxPoint x="90" y="22" />
              <mxPoint x="90" y="42" />
            </Array>
          </mxGeometry>
        </mxCell>
        <mxCell id="0PlHV3OxmcAFYTyNckas-47" value="Mark payment successful" style="text;html=1;align=center;verticalAlign=middle;resizable=0;points=[];autosize=1;strokeColor=none;fillColor=none;fontSize=13;" vertex="1" parent="0PlHV3OxmcAFYTyNckas-45">
          <mxGeometry x="-20" width="170" height="30" as="geometry" />
        </mxCell>
        <mxCell id="0PlHV3OxmcAFYTyNckas-48" value="" style="endArrow=classic;html=1;rounded=0;dashed=1;fontSize=13;" edge="1" parent="1">
          <mxGeometry width="50" height="50" relative="1" as="geometry">
            <mxPoint x="1180" y="840" as="sourcePoint" />
            <mxPoint x="500" y="840" as="targetPoint" />
          </mxGeometry>
        </mxCell>
        <mxCell id="0PlHV3OxmcAFYTyNckas-49" value="Redirect to Web App (with auth_code)" style="edgeLabel;html=1;align=center;verticalAlign=middle;resizable=0;points=[];fontSize=13;" vertex="1" connectable="0" parent="0PlHV3OxmcAFYTyNckas-48">
          <mxGeometry x="-0.0313" y="-4" relative="1" as="geometry">
            <mxPoint x="-6" y="-6" as="offset" />
          </mxGeometry>
        </mxCell>
        <mxCell id="0PlHV3OxmcAFYTyNckas-51" value="" style="rounded=0;whiteSpace=wrap;html=1;fillColor=none;dashed=1;dashPattern=1 4;fontSize=13;" vertex="1" parent="1">
          <mxGeometry x="400" y="880" width="520" height="490" as="geometry" />
        </mxCell>
        <mxCell id="0PlHV3OxmcAFYTyNckas-52" value="" style="rounded=0;whiteSpace=wrap;html=1;fillColor=none;dashed=1;dashPattern=1 4;fontSize=13;" vertex="1" parent="1">
          <mxGeometry x="410" y="1040" width="500" height="320" as="geometry" />
        </mxCell>
        <mxCell id="0PlHV3OxmcAFYTyNckas-53" value="loop" style="shape=card;whiteSpace=wrap;html=1;direction=south;flipV=1;fillColor=default;size=20;fontSize=13;" vertex="1" parent="1">
          <mxGeometry x="400" y="880" width="80" height="40" as="geometry" />
        </mxCell>
        <mxCell id="0PlHV3OxmcAFYTyNckas-54" value="alt" style="shape=card;whiteSpace=wrap;html=1;direction=south;flipV=1;fillColor=default;size=20;fontSize=13;" vertex="1" parent="1">
          <mxGeometry x="410" y="1040" width="80" height="40" as="geometry" />
        </mxCell>
        <mxCell id="0PlHV3OxmcAFYTyNckas-55" value="[ Retry until paid or max_attempts ]" style="text;html=1;align=center;verticalAlign=middle;resizable=0;points=[];autosize=1;strokeColor=none;fillColor=none;fontSize=13;" vertex="1" parent="1">
          <mxGeometry x="545" y="880" width="230" height="30" as="geometry" />
        </mxCell>
        <mxCell id="0PlHV3OxmcAFYTyNckas-56" value="" style="endArrow=classic;html=1;rounded=0;movable=1;resizable=1;rotatable=1;deletable=1;editable=1;locked=0;connectable=1;fontSize=13;" edge="1" parent="1">
          <mxGeometry width="50" height="50" relative="1" as="geometry">
            <mxPoint x="500" y="960" as="sourcePoint" />
            <mxPoint x="820" y="960" as="targetPoint" />
          </mxGeometry>
        </mxCell>
        <mxCell id="0PlHV3OxmcAFYTyNckas-57" value="Exchange auth_code for access_token" style="edgeLabel;html=1;align=center;verticalAlign=middle;resizable=0;points=[];fontSize=13;" vertex="1" connectable="0" parent="0PlHV3OxmcAFYTyNckas-56">
          <mxGeometry x="-0.1576" y="5" relative="1" as="geometry">
            <mxPoint x="26" y="-5" as="offset" />
          </mxGeometry>
        </mxCell>
        <mxCell id="0PlHV3OxmcAFYTyNckas-58" value="" style="group;fillColor=none;fontSize=13;" vertex="1" connectable="0" parent="1">
          <mxGeometry x="770" y="979" width="165" height="42" as="geometry" />
        </mxCell>
        <mxCell id="0PlHV3OxmcAFYTyNckas-59" value="" style="endArrow=classic;html=1;rounded=0;edgeStyle=orthogonalEdgeStyle;curved=1;fontSize=13;" edge="1" parent="0PlHV3OxmcAFYTyNckas-58">
          <mxGeometry width="50" height="50" relative="1" as="geometry">
            <mxPoint x="50" y="22" as="sourcePoint" />
            <mxPoint x="50" y="42" as="targetPoint" />
            <Array as="points">
              <mxPoint x="90" y="22" />
              <mxPoint x="90" y="42" />
            </Array>
          </mxGeometry>
        </mxCell>
        <mxCell id="0PlHV3OxmcAFYTyNckas-60" value="Check if payment is successful" style="text;html=1;align=center;verticalAlign=middle;resizable=0;points=[];autosize=1;strokeColor=none;fillColor=none;fontSize=13;" vertex="1" parent="0PlHV3OxmcAFYTyNckas-58">
          <mxGeometry x="-35" width="200" height="30" as="geometry" />
        </mxCell>
        <mxCell id="0PlHV3OxmcAFYTyNckas-61" value="[ Payment success ]" style="text;html=1;align=center;verticalAlign=middle;resizable=0;points=[];autosize=1;strokeColor=none;fillColor=none;fontSize=13;" vertex="1" parent="1">
          <mxGeometry x="590" y="1040" width="140" height="30" as="geometry" />
        </mxCell>
        <mxCell id="0PlHV3OxmcAFYTyNckas-62" value="" style="endArrow=classic;html=1;rounded=0;dashed=1;fontSize=13;" edge="1" parent="1">
          <mxGeometry width="50" height="50" relative="1" as="geometry">
            <mxPoint x="820" y="1118" as="sourcePoint" />
            <mxPoint x="500" y="1118.46" as="targetPoint" />
          </mxGeometry>
        </mxCell>
        <mxCell id="0PlHV3OxmcAFYTyNckas-63" value="Return access_token" style="edgeLabel;html=1;align=center;verticalAlign=middle;resizable=0;points=[];fontSize=13;" vertex="1" connectable="0" parent="0PlHV3OxmcAFYTyNckas-62">
          <mxGeometry x="-0.0313" y="-4" relative="1" as="geometry">
            <mxPoint x="-6" y="-6" as="offset" />
          </mxGeometry>
        </mxCell>
        <mxCell id="0PlHV3OxmcAFYTyNckas-64" value="" style="group;fillColor=none;fontSize=13;" vertex="1" connectable="0" parent="1">
          <mxGeometry x="450" y="1140" width="180" height="42" as="geometry" />
        </mxCell>
        <mxCell id="0PlHV3OxmcAFYTyNckas-65" value="" style="endArrow=classic;html=1;rounded=0;edgeStyle=orthogonalEdgeStyle;curved=1;fontSize=13;" edge="1" parent="0PlHV3OxmcAFYTyNckas-64">
          <mxGeometry width="50" height="50" relative="1" as="geometry">
            <mxPoint x="50" y="22" as="sourcePoint" />
            <mxPoint x="50" y="42" as="targetPoint" />
            <Array as="points">
              <mxPoint x="90" y="22" />
              <mxPoint x="90" y="42" />
            </Array>
          </mxGeometry>
        </mxCell>
        <mxCell id="0PlHV3OxmcAFYTyNckas-66" value="Save access_token in Localstorage" style="text;html=1;align=center;verticalAlign=middle;resizable=0;points=[];autosize=1;strokeColor=none;fillColor=none;fontSize=13;" vertex="1" parent="0PlHV3OxmcAFYTyNckas-64">
          <mxGeometry x="-50" width="230" height="30" as="geometry" />
        </mxCell>
        <mxCell id="0PlHV3OxmcAFYTyNckas-68" value="" style="endArrow=none;html=1;rounded=0;entryX=-0.003;entryY=0.454;entryDx=0;entryDy=0;entryPerimeter=0;exitX=1.002;exitY=0.453;exitDx=0;exitDy=0;exitPerimeter=0;dashed=1;dashPattern=1 2;fontSize=13;" edge="1" parent="1" source="0PlHV3OxmcAFYTyNckas-52" target="0PlHV3OxmcAFYTyNckas-52">
          <mxGeometry width="50" height="50" relative="1" as="geometry">
            <mxPoint x="907" y="1200" as="sourcePoint" />
            <mxPoint x="710" y="1210" as="targetPoint" />
            <Array as="points" />
          </mxGeometry>
        </mxCell>
        <mxCell id="0PlHV3OxmcAFYTyNckas-69" value="[ Payment not completed yet ]" style="text;html=1;align=center;verticalAlign=middle;resizable=0;points=[];autosize=1;strokeColor=none;fillColor=none;fontSize=13;" vertex="1" parent="1">
          <mxGeometry x="560" y="1210" width="200" height="30" as="geometry" />
        </mxCell>
        <mxCell id="0PlHV3OxmcAFYTyNckas-70" value="" style="endArrow=classic;html=1;rounded=0;dashed=1;fontSize=13;" edge="1" parent="1">
          <mxGeometry width="50" height="50" relative="1" as="geometry">
            <mxPoint x="820" y="1280" as="sourcePoint" />
            <mxPoint x="500" y="1280.46" as="targetPoint" />
          </mxGeometry>
        </mxCell>
        <mxCell id="0PlHV3OxmcAFYTyNckas-71" value="Payment pending" style="edgeLabel;html=1;align=center;verticalAlign=middle;resizable=0;points=[];fontSize=13;" vertex="1" connectable="0" parent="0PlHV3OxmcAFYTyNckas-70">
          <mxGeometry x="-0.0313" y="-4" relative="1" as="geometry">
            <mxPoint x="-6" y="-6" as="offset" />
          </mxGeometry>
        </mxCell>
        <mxCell id="0PlHV3OxmcAFYTyNckas-72" value="" style="group;fillColor=none;fontSize=13;" vertex="1" connectable="0" parent="1">
          <mxGeometry x="450" y="1300" width="170" height="42" as="geometry" />
        </mxCell>
        <mxCell id="0PlHV3OxmcAFYTyNckas-73" value="" style="endArrow=classic;html=1;rounded=0;edgeStyle=orthogonalEdgeStyle;curved=1;fontSize=13;" edge="1" parent="0PlHV3OxmcAFYTyNckas-72">
          <mxGeometry width="50" height="50" relative="1" as="geometry">
            <mxPoint x="50" y="22" as="sourcePoint" />
            <mxPoint x="50" y="42" as="targetPoint" />
            <Array as="points">
              <mxPoint x="90" y="22" />
              <mxPoint x="90" y="42" />
            </Array>
          </mxGeometry>
        </mxCell>
        <mxCell id="0PlHV3OxmcAFYTyNckas-74" value="Wait before retrying" style="text;html=1;align=center;verticalAlign=middle;resizable=0;points=[];autosize=1;strokeColor=none;fillColor=none;fontSize=13;" vertex="1" parent="0PlHV3OxmcAFYTyNckas-72">
          <mxGeometry x="-5" width="140" height="30" as="geometry" />
        </mxCell>
        <mxCell id="0PlHV3OxmcAFYTyNckas-75" value="" style="endArrow=classic;html=1;rounded=0;movable=1;resizable=1;rotatable=1;deletable=1;editable=1;locked=0;connectable=1;fontSize=13;" edge="1" parent="1">
          <mxGeometry width="50" height="50" relative="1" as="geometry">
            <mxPoint x="180" y="1400" as="sourcePoint" />
            <mxPoint x="1380" y="1400" as="targetPoint" />
          </mxGeometry>
        </mxCell>
        <mxCell id="0PlHV3OxmcAFYTyNckas-76" value="Save transaction information into database" style="edgeLabel;html=1;align=center;verticalAlign=middle;resizable=0;points=[];fontSize=13;" vertex="1" connectable="0" parent="0PlHV3OxmcAFYTyNckas-75">
          <mxGeometry x="-0.1576" y="5" relative="1" as="geometry">
            <mxPoint x="108" y="-5" as="offset" />
          </mxGeometry>
        </mxCell>
        <mxCell id="0PlHV3OxmcAFYTyNckas-80" value="User" style="rounded=1;whiteSpace=wrap;html=1;movable=1;resizable=1;rotatable=1;deletable=1;editable=1;locked=0;connectable=1;fontSize=13;" vertex="1" parent="1">
          <mxGeometry x="120" y="1500" width="120" height="60" as="geometry" />
        </mxCell>
        <mxCell id="0PlHV3OxmcAFYTyNckas-81" value="Frontend" style="rounded=1;whiteSpace=wrap;html=1;movable=1;resizable=1;rotatable=1;deletable=1;editable=1;locked=0;connectable=1;fontSize=13;" vertex="1" parent="1">
          <mxGeometry x="440" y="1500" width="120" height="60" as="geometry" />
        </mxCell>
        <mxCell id="0PlHV3OxmcAFYTyNckas-82" value="Backend" style="rounded=1;whiteSpace=wrap;html=1;movable=1;resizable=1;rotatable=1;deletable=1;editable=1;locked=0;connectable=1;fontSize=13;" vertex="1" parent="1">
          <mxGeometry x="760" y="1500" width="120" height="60" as="geometry" />
        </mxCell>
        <mxCell id="0PlHV3OxmcAFYTyNckas-83" value="PaymentService" style="rounded=1;whiteSpace=wrap;html=1;movable=1;resizable=1;rotatable=1;deletable=1;editable=1;locked=0;connectable=1;fontSize=13;" vertex="1" parent="1">
          <mxGeometry x="1120" y="1500" width="120" height="60" as="geometry" />
        </mxCell>
        <mxCell id="0PlHV3OxmcAFYTyNckas-85" value="Database" style="rounded=1;whiteSpace=wrap;html=1;movable=1;resizable=1;rotatable=1;deletable=1;editable=1;locked=0;connectable=1;fontSize=13;" vertex="1" parent="1">
          <mxGeometry x="1320" y="1500" width="120" height="60" as="geometry" />
        </mxCell>
      </root>
    </mxGraphModel>
  </diagram>
</mxfile>
